<svg aria-hidden="true" style="width:0;height:0;position:absolute;overflow:hidden" xmlns="http://www.w3.org/2000/svg"><defs><symbol id="icon-offering" viewBox="0 0 34 32"><path d="M21.931 15.709a.902.902 0 0 1 0 1.277l-9.206 9.206a.902.902 0 0 1-1.277 0l-.426-.426a.902.902 0 0 1 0-1.277l8.142-8.142-8.142-8.142a.902.902 0 0 1 0-1.277l.426-.426a.902.902 0 0 1 1.277 0l9.206 9.206z"/></symbol><symbol id="icon-menu-close" viewBox="0 0 30 32"><path d="m16.219 14.826 4.928-4.924a1.012 1.012 0 0 0-1.43-1.428l-4.928 4.873-4.958-4.954a1.013 1.013 0 0 0-1.43 1.428l4.948 5.005-4.846 4.782a1.002 1.002 0 0 0-.284 1.139 1.014 1.014 0 0 0 1.714.29l4.836-4.833 4.806 4.802a1.013 1.013 0 0 0 1.43-1.428l-4.786-4.751z"/></symbol><symbol id="icon-menu-open" viewBox="0 0 32 32"><path d="M2.666 8A1.335 1.335 0 0 1 4 6.666h24A1.33 1.33 0 0 1 29.333 8 1.333 1.333 0 0 1 28 9.334H4A1.335 1.335 0 0 1 2.666 8zm0 8.043A1.33 1.33 0 0 1 4 14.71h24a1.333 1.333 0 1 1 0 2.666H4a1.333 1.333 0 0 1-1.334-1.333zM4 22.752a1.337 1.337 0 0 0-1.334 1.333A1.33 1.33 0 0 0 4 25.418h24a1.333 1.333 0 1 0 0-2.666H4z"/></symbol><symbol id="icon-delivery" viewBox="0 0 32 32"><path fill="#7eb101" style="fill:var(--color1,#7eb101)" d="m9.489 14.422 2.356 1c.267-.533.552-1.059.856-1.578s.626-1.015.967-1.489l-1.756-.356-2.422 2.422zm3.422 1.8 2.956 2.956c.844-.385 1.637-.822 2.378-1.311s1.341-.963 1.8-1.422c1.2-1.2 2.081-2.43 2.644-3.689s.867-2.682.911-4.267c-1.585.044-3.007.348-4.267.911s-2.489 1.444-3.689 2.644c-.459.459-.933 1.059-1.422 1.8s-.926 1.533-1.311 2.378zM18 14.089c-.296-.296-.444-.663-.444-1.1s.148-.804.444-1.1c.296-.296.663-.444 1.1-.444s.804.148 1.1.444c.296.296.444.663.444 1.1s-.148.804-.444 1.1c-.296.296-.663.444-1.1.444s-.804-.148-1.1-.444zm-.333 8.511 2.422-2.422-.356-1.756c-.474.341-.97.663-1.489.967s-1.044.589-1.578.856l1 2.356zm7.244-15.422c.133 2.015-.119 3.852-.756 5.511s-1.689 3.222-3.156 4.689l-.089.089.489 2.444c.044.222.033.437-.033.644s-.181.393-.344.556l-3.8 3.822-1.889-4.4-3.778-3.778-4.4-1.889 3.822-3.8c.163-.163.348-.278.556-.344s.422-.078.644-.033l2.444.489c.015-.015.03-.026.044-.033s.03-.019.044-.033c1.467-1.467 3.03-2.522 4.689-3.167s3.496-.9 5.511-.767zM8.644 19.444c.518-.519 1.152-.781 1.9-.789s1.381.248 1.9.767c.518.518.774 1.152.767 1.9s-.27 1.381-.789 1.9c-.385.385-.981.704-1.789.956s-2.019.489-3.633.711c.222-1.615.456-2.83.7-3.644s.559-1.415.944-1.8zm.934.956c-.207.222-.393.57-.556 1.044s-.304 1.081-.422 1.822c.741-.118 1.348-.259 1.822-.422s.822-.348 1.044-.556c.281-.252.426-.567.433-.944s-.122-.707-.389-.989c-.282-.267-.611-.396-.989-.389s-.693.152-.944.433z"/></symbol><symbol id="icon-order" viewBox="0 0 32 32"><path fill="#7eb101" style="fill:var(--color1,#7eb101)" d="M15.667 6.222c1.348 0 2.5.47 3.456 1.411s1.433 2.085 1.433 3.433c0 .77-.167 1.496-.5 2.178s-.804 1.259-1.411 1.733h-.756v-1.111c.43-.341.759-.756.989-1.244s.344-1.007.344-1.556c0-.978-.348-1.807-1.044-2.489s-1.533-1.022-2.511-1.022c-.978 0-1.815.341-2.511 1.022s-1.044 1.511-1.044 2.489c0 .548.115 1.067.344 1.556s.559.904.989 1.244v1.6c-.83-.43-1.481-1.037-1.956-1.822s-.711-1.644-.711-2.578c0-1.348.478-2.493 1.433-3.433s2.107-1.411 3.456-1.411zm-.845 18.667c-.252 0-.489-.048-.711-.144s-.415-.226-.578-.389l-4.578-4.578 1.244-1.289c.207-.207.441-.367.7-.478s.53-.13.811-.056l1.733.4v-7.244c0-.622.215-1.148.644-1.578s.956-.644 1.578-.644c.622 0 1.148.215 1.578.644s.644.956.644 1.578v3.822h.578c.074 0 .141.015.2.044s.126.059.2.089l3.289 1.6c.356.163.619.426.789.789s.219.737.144 1.122l-.8 4.844c-.074.43-.281.781-.622 1.056s-.726.411-1.156.411H14.82zm-.177-1.333h6.244l.956-5.533-4.067-2.022h-1.222v-4.889c0-.267-.081-.481-.244-.644s-.378-.244-.644-.244-.482.081-.644.244c-.163.163-.244.378-.244.644v8.867l-3.422-.733-.511.511 3.8 3.8zm6.244 0z"/></symbol><symbol id="icon-stars" viewBox="0 0 202 32"><path fill="#ffe550" style="fill:var(--color3,#ffe550)" d="M15.421 1.037c.584-1.383 2.575-1.383 3.159 0l3.449 8.164a1.71 1.71 0 0 0 1.443 1.032l8.952.707c1.517.12 2.132 1.983.976 2.958l-6.821 5.752a1.67 1.67 0 0 0-.551 1.67l2.084 8.6c.353 1.457-1.257 2.609-2.556 1.828l-7.664-4.609a1.734 1.734 0 0 0-1.783 0l-7.664 4.609c-1.299.781-2.909-.371-2.556-1.828l2.084-8.6a1.67 1.67 0 0 0-.551-1.67L.601 13.898c-1.156-.975-.541-2.838.976-2.958l8.952-.707a1.71 1.71 0 0 0 1.443-1.032l3.449-8.164zm42 0c.584-1.383 2.575-1.383 3.159 0l3.449 8.164a1.71 1.71 0 0 0 1.443 1.032l8.952.707c1.517.12 2.132 1.983.976 2.958l-6.821 5.752a1.67 1.67 0 0 0-.551 1.67l2.084 8.6c.353 1.457-1.257 2.609-2.556 1.828l-7.664-4.609a1.734 1.734 0 0 0-1.783 0l-7.664 4.609c-1.299.781-2.909-.371-2.556-1.828l2.084-8.6a1.67 1.67 0 0 0-.551-1.67l-6.821-5.752c-1.156-.975-.541-2.838.976-2.958l8.952-.707a1.71 1.71 0 0 0 1.443-1.032l3.449-8.164zm42 0c.584-1.383 2.575-1.383 3.159 0l3.449 8.164a1.71 1.71 0 0 0 1.443 1.032l8.952.707c1.517.12 2.132 1.983.976 2.958l-6.821 5.752a1.67 1.67 0 0 0-.551 1.67l2.084 8.6c.353 1.457-1.257 2.609-2.556 1.828l-7.664-4.609a1.734 1.734 0 0 0-1.783 0l-7.664 4.609c-1.299.781-2.909-.371-2.556-1.828l2.084-8.6a1.67 1.67 0 0 0-.551-1.67l-6.821-5.752c-1.156-.975-.541-2.838.976-2.958l8.952-.707a1.71 1.71 0 0 0 1.443-1.032l3.449-8.164zm42 0c.584-1.383 2.575-1.383 3.159 0l3.449 8.164a1.71 1.71 0 0 0 1.443 1.032l8.952.707c1.517.12 2.132 1.983.976 2.958l-6.821 5.752a1.67 1.67 0 0 0-.551 1.67l2.084 8.6c.353 1.457-1.257 2.609-2.556 1.828l-7.664-4.609a1.734 1.734 0 0 0-1.783 0l-7.664 4.609c-1.299.781-2.909-.371-2.556-1.828l2.084-8.6a1.67 1.67 0 0 0-.551-1.67l-6.821-5.752c-1.156-.975-.541-2.838.976-2.958l8.952-.707a1.71 1.71 0 0 0 1.443-1.032l3.449-8.164zm42 0c.584-1.383 2.575-1.383 3.159 0l3.449 8.164a1.71 1.71 0 0 0 1.443 1.032l8.953.707c1.516.12 2.132 1.983.976 2.958l-6.821 5.752a1.67 1.67 0 0 0-.551 1.67l2.084 8.6c.353 1.457-1.257 2.609-2.556 1.828l-7.664-4.609a1.734 1.734 0 0 0-1.783 0l-7.664 4.609c-1.299.781-2.909-.371-2.556-1.828l2.084-8.6a1.67 1.67 0 0 0-.551-1.67l-6.821-5.752c-1.156-.975-.541-2.838.976-2.958l8.952-.707a1.71 1.71 0 0 0 1.443-1.032l3.449-8.164z"/></symbol><symbol id="icon-slider-right" viewBox="0 -2 37 32"><path fill="#fefefe" style="fill:var(--color4,#fefefe)" d="M34.667 5.333v16a5.333 5.333 0 0 1-5.333 5.333H8.001a5.333 5.333 0 0 1-5.333-5.333v-16A5.333 5.333 0 0 1 8.001 0h21.333a5.333 5.333 0 0 1 5.333 5.333z"/><path d="m25.7 12.73-9.288-8.85a.832.832 0 0 0-1.15 0l-.01.01a.78.78 0 0 0-.238.555.763.763 0 0 0 .238.555l8.747 8.333-8.747 8.33a.78.78 0 0 0-.238.555.763.763 0 0 0 .238.555l.01.01a.832.832 0 0 0 1.15 0l9.288-8.85a.82.82 0 0 0 .258-.603.837.837 0 0 0-.258-.603z"/></symbol><symbol id="icon-slider-left" viewBox="0 -2 37 32"><path fill="#fefefe" style="fill:var(--color4,#fefefe)" d="M2.667 21.333v-16A5.333 5.333 0 0 1 8 0h21.333a5.333 5.333 0 0 1 5.333 5.333v16a5.333 5.333 0 0 1-5.333 5.333H8a5.333 5.333 0 0 1-5.333-5.333z"/><path d="m11.634 13.937 9.288 8.85a.832.832 0 0 0 1.15 0l.01-.01a.78.78 0 0 0 .238-.555.763.763 0 0 0-.238-.555l-8.747-8.333 8.747-8.33a.78.78 0 0 0 .238-.555.763.763 0 0 0-.238-.555l-.01-.01a.832.832 0 0 0-1.15 0l-9.288 8.85a.82.82 0 0 0-.258.603.837.837 0 0 0 .258.603z"/></symbol><symbol id="icon-close" viewBox="0 0 32 32"><path d="M23.733 10.304 22.229 8.8l-5.963 5.963L10.303 8.8l-1.504 1.504 5.963 5.963-5.963 5.963 1.504 1.504 5.963-5.963 5.963 5.963 1.504-1.504-5.963-5.963 5.963-5.963z"/></symbol><symbol id="icon-warning2" viewBox="0 0 32 32"><path fill="none" stroke="#ff705d" style="stroke:var(--color1,#ff705d)" stroke-linejoin="round" stroke-linecap="round" stroke-width="2.286" d="M16 11.429v6.857M16.002 26.286a1.143 1.143 0 1 0 0-2.287 1.143 1.143 0 0 0 0 2.287z"/><path fill="none" stroke="#ff705d" style="stroke:var(--color1,#ff705d)" stroke-linejoin="round" stroke-linecap="round" stroke-width="2.286" d="M18.036 2.4a2.286 2.286 0 0 0-4.068 0L1.397 27.543a2.281 2.281 0 0 0 .094 2.224 2.287 2.287 0 0 0 1.941 1.09h25.143a2.28 2.28 0 0 0 1.941-1.09 2.292 2.292 0 0 0 .093-2.224L18.038 2.4z"/></symbol><symbol id="icon-warning21" viewBox="0 0 98 32"><path fill="#fe6060" style="fill:var(--color1,#fe6060)" d="M0 14.222C0 6.367 6.368 0 14.222 0h69.333c7.855 0 14.222 6.368 14.222 14.222S91.41 28.444 83.555 28.444h-28c-2.603-.028-4.063 1.213-6.667 3.556-2.603-2.342-4.063-3.584-6.667-3.556h-28c-7.855 0-14.222-6.368-14.222-14.222z"/><path fill="#faedeb" style="fill:var(--color2,#faedeb)" d="m12.402 12.073-1.762 5.112H9.575l2.22-5.898h.681l-.073.786zm1.475 5.112-1.766-5.112-.077-.786h.685l2.228 5.898h-1.069zm-.085-2.187v.806h-3.208v-.806h3.208zm2.762-4.035v6.222h-.98v-6.222h.98zm2.115 0v6.222h-.98v-6.222h.98zm4.391 6.222h-.98v-4.667c0-.354.07-.652.211-.895.143-.243.347-.428.612-.555a2.2 2.2 0 0 1 .952-.19c.216 0 .424.023.624.069.203.046.412.104.628.174l-.15.794a5.803 5.803 0 0 0-.458-.13 2.338 2.338 0 0 0-.579-.065c-.294 0-.512.068-.652.203-.138.132-.207.331-.207.595v4.667zm.879-4.383v.713h-2.532v-.713h2.532zm1.629 0v4.383h-.976v-4.383h.976zm3.022 4.464c-.324 0-.617-.053-.879-.158a1.933 1.933 0 0 1-.664-.45c-.181-.192-.32-.417-.417-.677s-.146-.539-.146-.839v-.162c0-.343.05-.653.15-.932s.239-.516.417-.713c.178-.2.389-.352.632-.458s.506-.158.79-.158c.313 0 .587.053.822.158s.429.254.583.446c.157.189.273.415.348.677.078.262.117.551.117.867v.417h-3.387v-.701h2.422v-.077a1.356 1.356 0 0 0-.105-.494c-.062-.154-.158-.278-.288-.373s-.302-.142-.519-.142a.881.881 0 0 0-.433.105c-.124.068-.228.166-.312.296s-.148.286-.194.47a2.654 2.654 0 0 0-.065.612v.162c0 .192.026.37.077.535.054.162.132.304.235.425s.227.217.373.288c.146.067.312.101.498.101.235 0 .444-.047.628-.142s.343-.228.478-.401l.515.498a1.86 1.86 0 0 1-.924.701 2.214 2.214 0 0 1-.753.117zm3.56-6.303v6.222h-.98v-6.222h.98zm3.744 5.315v-5.315h.98v6.222h-.887l-.093-.907zm-2.852-1.236v-.085c0-.332.039-.635.117-.907.078-.275.192-.512.34-.709.148-.2.329-.352.543-.458.213-.108.454-.162.721-.162.265 0 .497.051.697.154s.37.25.51.442c.14.189.252.416.336.681.084.262.143.554.178.875v.271c-.035.313-.095.6-.178.859s-.196.483-.336.672c-.14.189-.312.335-.514.438a1.51 1.51 0 0 1-.701.154c-.265 0-.504-.055-.717-.166-.211-.111-.39-.266-.539-.466s-.262-.435-.34-.705a3.22 3.22 0 0 1-.117-.887zm.976-.085v.085c0 .2.018.386.053.559.038.173.096.325.174.458.078.13.18.232.304.308a.895.895 0 0 0 .454.109c.221 0 .404-.049.547-.146s.255-.228.336-.393c.084-.167.14-.354.17-.559v-.733a1.804 1.804 0 0 0-.101-.446 1.2 1.2 0 0 0-.199-.361.846.846 0 0 0-.312-.243.984.984 0 0 0-.433-.089c-.178 0-.329.038-.454.113s-.227.18-.308.312c-.078.132-.136.286-.174.462s-.057.363-.057.563zm6.336 1.041a.485.485 0 0 0-.073-.263c-.049-.081-.142-.154-.279-.219a2.699 2.699 0 0 0-.6-.178 5.146 5.146 0 0 1-.64-.182c-.192-.073-.356-.161-.494-.263s-.244-.224-.32-.365-.113-.302-.113-.486c0-.178.039-.347.117-.506s.19-.3.336-.421c.146-.122.323-.217.531-.288a2.23 2.23 0 0 1 .705-.105c.367 0 .682.062.944.186.265.122.467.288.608.498.14.208.211.443.211.705h-.976a.627.627 0 0 0-.089-.324.62.62 0 0 0-.259-.247.887.887 0 0 0-.438-.097.95.95 0 0 0-.417.081.567.567 0 0 0-.243.203.521.521 0 0 0-.037.473c.03.057.078.109.146.158.068.046.159.089.276.13.119.04.267.08.446.117.335.07.623.161.863.271.243.108.429.248.559.421.13.17.194.386.194.648 0 .194-.042.373-.126.535-.081.159-.2.298-.356.417a1.776 1.776 0 0 1-.563.271 2.528 2.528 0 0 1-.729.097c-.397 0-.733-.07-1.009-.211a1.598 1.598 0 0 1-.628-.547 1.298 1.298 0 0 1-.211-.697h.944a.732.732 0 0 0 .15.433.812.812 0 0 0 .34.231c.138.046.279.069.425.069.176 0 .323-.023.442-.069a.634.634 0 0 0 .271-.194.465.465 0 0 0 .093-.284zm6.347.308v-2.09c0-.157-.028-.292-.085-.405s-.143-.201-.259-.263a.888.888 0 0 0-.429-.093c-.159 0-.297.027-.413.081s-.207.127-.271.219a.527.527 0 0 0-.097.312h-.972c0-.173.042-.34.126-.502s.205-.307.365-.433.35-.227.571-.3c.221-.073.47-.109.745-.109.329 0 .621.055.875.166.257.111.458.278.604.502.149.221.223.5.223.835v1.949c0 .2.014.379.04.539.03.157.072.293.126.409v.065h-1.001a1.722 1.722 0 0 1-.109-.401 3.318 3.318 0 0 1-.036-.478zm.142-1.786.008.604h-.701c-.181 0-.34.018-.478.053-.138.032-.252.081-.344.146a.634.634 0 0 0-.276.547c0 .116.027.223.081.32a.563.563 0 0 0 .235.223.825.825 0 0 0 .381.081c.2 0 .374-.041.523-.122.151-.084.27-.185.356-.304a.671.671 0 0 0 .138-.344l.316.433c-.032.111-.088.23-.166.356s-.181.248-.308.365a1.511 1.511 0 0 1-1.05.388c-.286 0-.541-.057-.766-.17a1.359 1.359 0 0 1-.527-.466 1.206 1.206 0 0 1-.19-.668c0-.232.043-.437.13-.616.089-.181.219-.332.389-.454.173-.122.383-.213.632-.275a3.37 3.37 0 0 1 .851-.097h.766zm2.84-.883v3.549h-.976v-4.383h.932l.045.835zm1.341-.863-.008.907a2.755 2.755 0 0 0-.397-.032c-.167 0-.315.024-.442.073a.82.82 0 0 0-.514.519 1.436 1.436 0 0 0-.081.417l-.223.016c0-.275.027-.531.081-.766s.135-.442.243-.62c.111-.178.248-.317.413-.417.167-.1.361-.15.579-.15a1.178 1.178 0 0 1 .348.053zm2.463 4.492c-.324 0-.617-.053-.879-.158a1.933 1.933 0 0 1-.664-.45c-.181-.192-.32-.417-.417-.677s-.146-.539-.146-.839v-.162c0-.343.05-.653.15-.932s.239-.516.417-.713c.178-.2.389-.352.632-.458s.506-.158.79-.158c.313 0 .587.053.822.158s.429.254.583.446c.157.189.273.415.348.677.078.262.117.551.117.867v.417h-3.387v-.701h2.422v-.077a1.376 1.376 0 0 0-.105-.494c-.062-.154-.158-.278-.288-.373s-.302-.142-.519-.142a.881.881 0 0 0-.433.105c-.124.068-.228.166-.312.296s-.149.286-.194.47a2.654 2.654 0 0 0-.065.612v.162c0 .192.026.37.077.535.054.162.132.304.235.425s.227.217.373.288c.146.067.312.101.498.101.235 0 .444-.047.628-.142s.343-.228.478-.401l.514.498a1.86 1.86 0 0 1-.924.701 2.214 2.214 0 0 1-.753.117zm5.562-3.629v3.549h-.976v-4.383h.932l.045.835zm1.34-.863-.008.907a2.75 2.75 0 0 0-.397-.032c-.168 0-.315.024-.441.073a.82.82 0 0 0-.514.519 1.436 1.436 0 0 0-.081.417l-.223.016c0-.275.027-.531.081-.766s.135-.442.243-.62c.111-.178.249-.317.413-.417a1.19 1.19 0 0 1 .928-.097zm2.463 4.492c-.324 0-.617-.053-.879-.158a1.933 1.933 0 0 1-.664-.45c-.181-.192-.32-.417-.417-.677s-.146-.539-.146-.839v-.162c0-.343.05-.653.15-.932s.239-.516.417-.713c.178-.2.389-.352.632-.458s.507-.158.79-.158c.313 0 .587.053.823.158s.43.254.583.446c.157.189.273.415.348.677.078.262.117.551.117.867v.417H61.22v-.701h2.422v-.077a1.356 1.356 0 0 0-.105-.494c-.062-.154-.158-.278-.288-.373s-.302-.142-.519-.142a.881.881 0 0 0-.433.105c-.124.068-.228.166-.312.296s-.149.286-.195.47a2.654 2.654 0 0 0-.065.612v.162c0 .192.025.37.077.535.054.162.132.304.235.425s.227.217.373.288c.146.067.312.101.498.101.235 0 .444-.047.628-.142s.343-.228.478-.401l.515.498a1.86 1.86 0 0 1-.924.701 2.216 2.216 0 0 1-.754.117zm5.185 1.604v-5.197l.114-.871h.871v6.068h-.985zm-2.847-3.832v-.085c0-.332.038-.635.113-.907.076-.275.188-.512.337-.709s.329-.348.543-.454a1.61 1.61 0 0 1 .737-.162c.27 0 .505.051.705.154.203.103.373.25.511.442.14.189.252.415.336.677s.145.554.183.875v.271c-.036.313-.095.6-.178.859s-.196.483-.337.672-.312.336-.514.442c-.203.103-.44.154-.713.154s-.516-.055-.729-.166a1.574 1.574 0 0 1-.543-.466 2.316 2.316 0 0 1-.337-.709 3.335 3.335 0 0 1-.113-.887zm.976-.085v.085c0 .2.018.387.053.563.038.173.097.327.178.462.081.132.184.236.308.312s.274.113.45.113c.23 0 .417-.05.563-.15a.973.973 0 0 0 .341-.401c.081-.17.137-.358.17-.563v-.733a2.122 2.122 0 0 0-.101-.446 1.145 1.145 0 0 0-.203-.365.836.836 0 0 0-.316-.243 1.031 1.031 0 0 0-.446-.089c-.175 0-.327.038-.454.113s-.231.181-.312.316c-.078.132-.136.286-.174.462s-.057.363-.057.563zm6.538 1.199v-3.35h.981v4.383h-.924l-.057-1.033zm.138-.911.328-.008c0 .294-.033.566-.097.814-.065.246-.165.46-.3.644a1.393 1.393 0 0 1-.519.425c-.211.1-.463.15-.758.15-.213 0-.409-.031-.587-.093s-.332-.158-.462-.288c-.127-.13-.226-.298-.296-.506s-.105-.456-.105-.745v-2.832h.977v2.84c0 .159.018.293.056.401.038.105.089.19.154.255s.14.111.227.138c.087.027.178.04.276.04.278 0 .497-.054.656-.162a.892.892 0 0 0 .344-.446c.071-.186.105-.396.105-.628zm2.888-2.439v4.383h-.98v-4.383h.98zm-1.045-1.15c0-.149.049-.271.146-.369.1-.1.238-.15.414-.15.172 0 .309.05.409.15.1.097.15.22.15.369 0 .146-.05.267-.15.365s-.236.146-.409.146a.571.571 0 0 1-.414-.146.496.496 0 0 1-.146-.365zm3.095 1.985v3.549h-.977v-4.383h.932l.044.835zm1.341-.863-.008.907a2.755 2.755 0 0 0-.397-.032c-.168 0-.315.024-.441.073a.828.828 0 0 0-.514.519 1.436 1.436 0 0 0-.081.417l-.223.016c0-.275.027-.531.081-.766s.135-.442.243-.62c.111-.178.248-.317.413-.417.168-.1.361-.15.58-.15a1.178 1.178 0 0 1 .348.053zm2.463 4.492c-.324 0-.617-.053-.879-.158a1.933 1.933 0 0 1-.664-.45c-.181-.192-.32-.417-.417-.677s-.146-.539-.146-.839v-.162c0-.343.05-.653.15-.932s.239-.516.417-.713c.178-.2.389-.352.632-.458s.506-.158.79-.158c.313 0 .587.053.822.158s.43.254.584.446c.156.189.273.415.348.677.078.262.117.551.117.867v.417h-3.387v-.701h2.423v-.077a1.356 1.356 0 0 0-.105-.494c-.062-.154-.158-.278-.287-.373s-.303-.142-.519-.142a.888.888 0 0 0-.434.105c-.124.068-.228.166-.312.296s-.149.286-.194.47a2.654 2.654 0 0 0-.065.612v.162c0 .192.026.37.077.535.054.162.133.304.235.425s.227.217.373.288c.146.067.312.101.498.101.235 0 .444-.047.628-.142s.343-.228.478-.401l.514.498c-.095.138-.217.27-.369.397a1.873 1.873 0 0 1-.555.304 2.214 2.214 0 0 1-.753.117zm5.189-.988v-5.315h.98v6.222h-.887l-.093-.907zm-2.852-1.236v-.085c0-.332.039-.635.117-.907.079-.275.192-.512.341-.709.148-.2.329-.352.543-.458a1.57 1.57 0 0 1 .721-.162c.265 0 .497.051.697.154s.37.25.511.442c.14.189.252.416.336.681.084.262.143.554.178.875v.271c-.036.313-.095.6-.178.859s-.196.483-.336.672c-.14.189-.312.335-.515.438-.2.103-.433.154-.7.154-.265 0-.504-.055-.717-.166-.211-.111-.391-.266-.539-.466s-.262-.435-.341-.705a3.22 3.22 0 0 1-.117-.887zm.977-.085v.085c0 .2.017.386.053.559.037.173.095.325.174.458.079.13.18.232.304.308a.898.898 0 0 0 .454.109c.221 0 .404-.049.547-.146s.255-.228.336-.393c.084-.167.14-.354.17-.559v-.733a1.804 1.804 0 0 0-.101-.446 1.178 1.178 0 0 0-.199-.361.838.838 0 0 0-.312-.243.982.982 0 0 0-.434-.089c-.178 0-.329.038-.453.113s-.227.18-.308.312c-.078.132-.136.286-.174.462s-.056.363-.056.563z"/></symbol></defs></svg>