<svg aria-hidden="true" style="position:absolute;width:0;height:0;overflow:hidden" xmlns="http://www.w3.org/2000/svg">
  <defs>
    <symbol id="icon-offering" viewBox="0 0 34 32">
      <path
        d="M21.931 15.709a.902.902 0 0 1 0 1.277l-9.206 9.206a.902.902 0 0 1-1.277 0l-.426-.426a.902.902 0 0 1 0-1.277l8.142-8.142-8.142-8.142a.902.902 0 0 1 0-1.277l.426-.426a.902.902 0 0 1 1.277 0l9.206 9.206z" />
    </symbol>
    <symbol id="icon-menu-close" viewBox="0 0 30 32">
      <path
        d="m16.219 14.826 4.928-4.924a1.012 1.012 0 0 0-1.43-1.428l-4.928 4.873-4.958-4.954a1.013 1.013 0 0 0-1.43 1.428l4.948 5.005-4.846 4.782a1.002 1.002 0 0 0-.284 1.139 1.014 1.014 0 0 0 1.714.29l4.836-4.833 4.806 4.802a1.013 1.013 0 0 0 1.43-1.428l-4.786-4.751z" />
    </symbol>
    <symbol id="icon-menu-open" viewBox="0 0 32 32">
      <path
        d="M2.666 8A1.335 1.335 0 0 1 4 6.666h24A1.33 1.33 0 0 1 29.333 8 1.333 1.333 0 0 1 28 9.334H4A1.335 1.335 0 0 1 2.666 8zm0 8.043A1.33 1.33 0 0 1 4 14.71h24a1.333 1.333 0 1 1 0 2.666H4a1.333 1.333 0 0 1-1.334-1.333zM4 22.752a1.337 1.337 0 0 0-1.334 1.333A1.33 1.33 0 0 0 4 25.418h24a1.333 1.333 0 1 0 0-2.666H4z" />
    </symbol>
    <symbol id="icon-delivery" viewBox="0 0 32 32">
      <path fill="#7eb101" style="fill:var(--color1, #7eb101)"
        d="m9.489 14.422 2.356 1c.267-.533.552-1.059.856-1.578s.626-1.015.967-1.489l-1.756-.356-2.422 2.422zm3.422 1.8 2.956 2.956c.844-.385 1.637-.822 2.378-1.311s1.341-.963 1.8-1.422c1.2-1.2 2.081-2.43 2.644-3.689s.867-2.682.911-4.267c-1.585.044-3.007.348-4.267.911s-2.489 1.444-3.689 2.644c-.459.459-.933 1.059-1.422 1.8s-.926 1.533-1.311 2.378zM18 14.089c-.296-.296-.444-.663-.444-1.1s.148-.804.444-1.1c.296-.296.663-.444 1.1-.444s.804.148 1.1.444c.296.296.444.663.444 1.1s-.148.804-.444 1.1c-.296.296-.663.444-1.1.444s-.804-.148-1.1-.444zm-.333 8.511 2.422-2.422-.356-1.756c-.474.341-.97.663-1.489.967s-1.044.589-1.578.856l1 2.356zm7.244-15.422c.133 2.015-.119 3.852-.756 5.511s-1.689 3.222-3.156 4.689l-.089.089.489 2.444c.044.222.033.437-.033.644s-.181.393-.344.556l-3.8 3.822-1.889-4.4-3.778-3.778-4.4-1.889 3.822-3.8c.163-.163.348-.278.556-.344s.422-.078.644-.033l2.444.489c.015-.015.03-.026.044-.033s.03-.019.044-.033c1.467-1.467 3.03-2.522 4.689-3.167s3.496-.9 5.511-.767zM8.644 19.444c.518-.519 1.152-.781 1.9-.789s1.381.248 1.9.767c.518.518.774 1.152.767 1.9s-.27 1.381-.789 1.9c-.385.385-.981.704-1.789.956s-2.019.489-3.633.711c.222-1.615.456-2.83.7-3.644s.559-1.415.944-1.8zm.934.956c-.207.222-.393.57-.556 1.044s-.304 1.081-.422 1.822c.741-.118 1.348-.259 1.822-.422s.822-.348 1.044-.556c.281-.252.426-.567.433-.944s-.122-.707-.389-.989c-.282-.267-.611-.396-.989-.389s-.693.152-.944.433z" />
    </symbol>
    <symbol id="icon-order" viewBox="0 0 32 32">
      <path fill="#7eb101" style="fill:var(--color1, #7eb101)"
        d="M15.667 6.222c1.348 0 2.5.47 3.456 1.411s1.433 2.085 1.433 3.433c0 .77-.167 1.496-.5 2.178s-.804 1.259-1.411 1.733h-.756v-1.111c.43-.341.759-.756.989-1.244s.344-1.007.344-1.556c0-.978-.348-1.807-1.044-2.489s-1.533-1.022-2.511-1.022c-.978 0-1.815.341-2.511 1.022s-1.044 1.511-1.044 2.489c0 .548.115 1.067.344 1.556s.559.904.989 1.244v1.6c-.83-.43-1.481-1.037-1.956-1.822s-.711-1.644-.711-2.578c0-1.348.478-2.493 1.433-3.433s2.107-1.411 3.456-1.411zm-.845 18.667c-.252 0-.489-.048-.711-.144s-.415-.226-.578-.389l-4.578-4.578 1.244-1.289c.207-.207.441-.367.7-.478s.53-.13.811-.056l1.733.4v-7.244c0-.622.215-1.148.644-1.578s.956-.644 1.578-.644c.622 0 1.148.215 1.578.644s.644.956.644 1.578v3.822h.578c.074 0 .141.015.2.044s.126.059.2.089l3.289 1.6c.356.163.619.426.789.789s.219.737.144 1.122l-.8 4.844c-.074.43-.281.781-.622 1.056s-.726.411-1.156.411H14.82zm-.177-1.333h6.244l.956-5.533-4.067-2.022h-1.222v-4.889c0-.267-.081-.481-.244-.644s-.378-.244-.644-.244-.482.081-.644.244c-.163.163-.244.378-.244.644v8.867l-3.422-.733-.511.511 3.8 3.8zm6.244 0z" />
    </symbol>
    <symbol id="icon-stars" viewBox="0 0 202 32">
      <path fill="#ffe550" style="fill:var(--color3, #ffe550)"
        d="M15.421 1.037c.584-1.383 2.575-1.383 3.159 0l3.449 8.164a1.71 1.71 0 0 0 1.443 1.032l8.952.707c1.517.12 2.132 1.983.976 2.958l-6.821 5.752a1.67 1.67 0 0 0-.551 1.67l2.084 8.6c.353 1.457-1.257 2.609-2.556 1.828l-7.664-4.609a1.734 1.734 0 0 0-1.783 0l-7.664 4.609c-1.299.781-2.909-.371-2.556-1.828l2.084-8.6a1.67 1.67 0 0 0-.551-1.67L.601 13.898c-1.156-.975-.541-2.838.976-2.958l8.952-.707a1.71 1.71 0 0 0 1.443-1.032l3.449-8.164zM57.421 1.037c.584-1.383 2.575-1.383 3.159 0l3.449 8.164a1.71 1.71 0 0 0 1.443 1.032l8.952.707c1.517.12 2.132 1.983.976 2.958l-6.821 5.752a1.67 1.67 0 0 0-.551 1.67l2.084 8.6c.353 1.457-1.257 2.609-2.556 1.828l-7.664-4.609a1.734 1.734 0 0 0-1.783 0l-7.664 4.609c-1.299.781-2.909-.371-2.556-1.828l2.084-8.6a1.67 1.67 0 0 0-.551-1.67l-6.821-5.752c-1.156-.975-.541-2.838.976-2.958l8.952-.707a1.71 1.71 0 0 0 1.443-1.032l3.449-8.164zM99.421 1.037c.584-1.383 2.575-1.383 3.159 0l3.449 8.164a1.71 1.71 0 0 0 1.443 1.032l8.952.707c1.517.12 2.132 1.983.976 2.958l-6.821 5.752a1.67 1.67 0 0 0-.551 1.67l2.084 8.6c.353 1.457-1.257 2.609-2.556 1.828l-7.664-4.609a1.734 1.734 0 0 0-1.783 0l-7.664 4.609c-1.299.781-2.909-.371-2.556-1.828l2.084-8.6a1.67 1.67 0 0 0-.551-1.67l-6.821-5.752c-1.156-.975-.541-2.838.976-2.958l8.952-.707a1.71 1.71 0 0 0 1.443-1.032l3.449-8.164zM141.421 1.037c.584-1.383 2.575-1.383 3.159 0l3.449 8.164a1.71 1.71 0 0 0 1.443 1.032l8.952.707c1.517.12 2.132 1.983.976 2.958l-6.821 5.752a1.67 1.67 0 0 0-.551 1.67l2.084 8.6c.353 1.457-1.257 2.609-2.556 1.828l-7.664-4.609a1.734 1.734 0 0 0-1.783 0l-7.664 4.609c-1.299.781-2.909-.371-2.556-1.828l2.084-8.6a1.67 1.67 0 0 0-.551-1.67l-6.821-5.752c-1.156-.975-.541-2.838.976-2.958l8.952-.707a1.71 1.71 0 0 0 1.443-1.032l3.449-8.164zM183.421 1.037c.584-1.383 2.575-1.383 3.159 0l3.449 8.164a1.71 1.71 0 0 0 1.443 1.032l8.953.707c1.516.12 2.132 1.983.976 2.958l-6.821 5.752a1.67 1.67 0 0 0-.551 1.67l2.084 8.6c.353 1.457-1.257 2.609-2.556 1.828l-7.664-4.609a1.734 1.734 0 0 0-1.783 0l-7.664 4.609c-1.299.781-2.909-.371-2.556-1.828l2.084-8.6a1.67 1.67 0 0 0-.551-1.67l-6.821-5.752c-1.156-.975-.541-2.838.976-2.958l8.952-.707a1.71 1.71 0 0 0 1.443-1.032l3.449-8.164z" />
    </symbol>
    <symbol id="icon-slider-right" viewBox="0 -2 37 32">
      <path fill="#fefefe" style="fill:var(--color4, #fefefe)"
        d="M34.667 5.333v16a5.333 5.333 0 0 1-5.333 5.333H8.001a5.333 5.333 0 0 1-5.333-5.333v-16A5.333 5.333 0 0 1 8.001 0h21.333a5.333 5.333 0 0 1 5.333 5.333z" />
      <path
        d="m25.7 12.73-9.288-8.85a.832.832 0 0 0-1.15 0l-.01.01a.78.78 0 0 0-.238.555.763.763 0 0 0 .238.555l8.747 8.333-8.747 8.33a.78.78 0 0 0-.238.555.763.763 0 0 0 .238.555l.01.01a.832.832 0 0 0 1.15 0l9.288-8.85a.82.82 0 0 0 .258-.603.837.837 0 0 0-.258-.603z" />
    </symbol>
    <symbol id="icon-slider-left" viewBox="0 -2 37 32">
      <path fill="#fefefe" style="fill:var(--color4, #fefefe)"
        d="M2.667 21.333v-16A5.333 5.333 0 0 1 8 0h21.333a5.333 5.333 0 0 1 5.333 5.333v16a5.333 5.333 0 0 1-5.333 5.333H8a5.333 5.333 0 0 1-5.333-5.333z" />
      <path
        d="m11.634 13.937 9.288 8.85a.832.832 0 0 0 1.15 0l.01-.01a.78.78 0 0 0 .238-.555.763.763 0 0 0-.238-.555l-8.747-8.333 8.747-8.33a.78.78 0 0 0 .238-.555.763.763 0 0 0-.238-.555l-.01-.01a.832.832 0 0 0-1.15 0l-9.288 8.85a.82.82 0 0 0-.258.603.837.837 0 0 0 .258.603z" />
    </symbol>
    <symbol id="icon-close" viewBox="0 0 32 32">
      <path
        d="M23.733 10.304l-1.504-1.504-5.963 5.963-5.963-5.963-1.504 1.504 5.963 5.963-5.963 5.963 1.504 1.504 5.963-5.963 5.963 5.963 1.504-1.504-5.963-5.963 5.963-5.963z">
      </path>
    </symbol>

    <symbol id="icon-warning2" viewBox="0 0 32 32">
      <path fill="none" stroke="#ff705d" style="stroke: var(--color1, #ff705d)" stroke-linejoin="round"
        stroke-linecap="round" stroke-miterlimit="4" stroke-width="2.2857" d="M16 11.429v6.857"></path>
      <path fill="none" stroke="#ff705d" style="stroke: var(--color1, #ff705d)" stroke-linejoin="round"
        stroke-linecap="round" stroke-miterlimit="4" stroke-width="2.2857"
        d="M16.002 26.286c0.631 0 1.143-0.512 1.143-1.143s-0.512-1.143-1.143-1.143c-0.631 0-1.143 0.512-1.143 1.143s0.512 1.143 1.143 1.143z">
      </path>
      <path fill="none" stroke="#ff705d" style="stroke: var(--color1, #ff705d)" stroke-linejoin="round"
        stroke-linecap="round" stroke-miterlimit="4" stroke-width="2.2857"
        d="M18.036 2.4c-0.192-0.374-0.483-0.689-0.842-0.908s-0.771-0.336-1.192-0.336c-0.421 0-0.833 0.116-1.192 0.336s-0.65 0.534-0.842 0.908l-12.571 25.143c-0.175 0.348-0.259 0.735-0.242 1.124s0.132 0.768 0.336 1.1c0.204 0.332 0.489 0.606 0.829 0.797s0.723 0.291 1.112 0.293h25.143c0.39-0.001 0.772-0.102 1.112-0.293s0.625-0.465 0.829-0.797c0.204-0.332 0.319-0.711 0.336-1.1s-0.067-0.776-0.243-1.124l-12.571-25.143z">
      </path>
    </symbol>

    <symbol id="icon-warning21" viewBox="0 0 98 32">
<path fill="#fe6060" style="fill: var(--color1, #fe6060)" d="M0 14.222c0-7.855 6.368-14.222 14.222-14.222h69.333c7.855 0 14.222 6.368 14.222 14.222s-6.367 14.222-14.222 14.222h-28c-2.603-0.028-4.063 1.213-6.667 3.556-2.603-2.342-4.063-3.584-6.667-3.556h-28c-7.855 0-14.222-6.368-14.222-14.222z"></path>
<path fill="#faedeb" style="fill: var(--color2, #faedeb)" d="M12.402 12.073l-1.762 5.112h-1.065l2.22-5.898h0.681l-0.073 0.786zM13.877 17.185l-1.766-5.112-0.077-0.786h0.685l2.228 5.898h-1.069zM13.792 14.998v0.806h-3.208v-0.806h3.208zM16.554 10.963v6.222h-0.98v-6.222h0.98zM18.669 10.963v6.222h-0.98v-6.222h0.98zM23.060 17.185h-0.98v-4.667c0-0.354 0.070-0.652 0.211-0.895 0.143-0.243 0.347-0.428 0.612-0.555 0.267-0.127 0.585-0.19 0.952-0.19 0.216 0 0.424 0.023 0.624 0.069 0.203 0.046 0.412 0.104 0.628 0.174l-0.15 0.794c-0.138-0.046-0.29-0.089-0.458-0.13-0.167-0.043-0.361-0.065-0.579-0.065-0.294 0-0.512 0.068-0.652 0.203-0.138 0.132-0.207 0.331-0.207 0.595v4.667zM23.939 12.802v0.713h-2.532v-0.713h2.532zM25.568 12.802v4.383h-0.976v-4.383h0.976zM28.59 17.266c-0.324 0-0.617-0.053-0.879-0.158-0.259-0.108-0.481-0.258-0.664-0.45-0.181-0.192-0.32-0.417-0.417-0.677s-0.146-0.539-0.146-0.839v-0.162c0-0.343 0.050-0.653 0.15-0.932s0.239-0.516 0.417-0.713c0.178-0.2 0.389-0.352 0.632-0.458s0.506-0.158 0.79-0.158c0.313 0 0.587 0.053 0.822 0.158s0.429 0.254 0.583 0.446c0.157 0.189 0.273 0.415 0.348 0.677 0.078 0.262 0.117 0.551 0.117 0.867v0.417h-3.387v-0.701h2.422v-0.077c-0.005-0.176-0.040-0.34-0.105-0.494-0.062-0.154-0.158-0.278-0.288-0.373s-0.302-0.142-0.519-0.142c-0.162 0-0.306 0.035-0.433 0.105-0.124 0.068-0.228 0.166-0.312 0.296s-0.148 0.286-0.194 0.47c-0.043 0.181-0.065 0.385-0.065 0.612v0.162c0 0.192 0.026 0.37 0.077 0.535 0.054 0.162 0.132 0.304 0.235 0.425s0.227 0.217 0.373 0.288c0.146 0.067 0.312 0.101 0.498 0.101 0.235 0 0.444-0.047 0.628-0.142s0.343-0.228 0.478-0.401l0.515 0.498c-0.095 0.138-0.217 0.27-0.369 0.397-0.151 0.124-0.336 0.225-0.555 0.304-0.216 0.078-0.467 0.117-0.753 0.117zM32.15 10.963v6.222h-0.98v-6.222h0.98zM35.894 16.278v-5.315h0.98v6.222h-0.887l-0.093-0.907zM33.042 15.042v-0.085c0-0.332 0.039-0.635 0.117-0.907 0.078-0.275 0.192-0.512 0.34-0.709 0.148-0.2 0.329-0.352 0.543-0.458 0.213-0.108 0.454-0.162 0.721-0.162 0.265 0 0.497 0.051 0.697 0.154s0.37 0.25 0.51 0.442c0.14 0.189 0.252 0.416 0.336 0.681 0.084 0.262 0.143 0.554 0.178 0.875v0.271c-0.035 0.313-0.095 0.6-0.178 0.859s-0.196 0.483-0.336 0.672c-0.14 0.189-0.312 0.335-0.514 0.438-0.2 0.103-0.433 0.154-0.701 0.154-0.265 0-0.504-0.055-0.717-0.166-0.211-0.111-0.39-0.266-0.539-0.466s-0.262-0.435-0.34-0.705c-0.078-0.273-0.117-0.569-0.117-0.887zM34.018 14.957v0.085c0 0.2 0.018 0.386 0.053 0.559 0.038 0.173 0.096 0.325 0.174 0.458 0.078 0.13 0.18 0.232 0.304 0.308 0.127 0.073 0.278 0.109 0.454 0.109 0.221 0 0.404-0.049 0.547-0.146s0.255-0.228 0.336-0.393c0.084-0.167 0.14-0.354 0.17-0.559v-0.733c-0.016-0.159-0.050-0.308-0.101-0.446-0.049-0.138-0.115-0.258-0.199-0.361-0.084-0.105-0.188-0.186-0.312-0.243-0.122-0.059-0.266-0.089-0.433-0.089-0.178 0-0.329 0.038-0.454 0.113s-0.227 0.18-0.308 0.312c-0.078 0.132-0.136 0.286-0.174 0.462s-0.057 0.363-0.057 0.563zM40.354 15.998c0-0.097-0.024-0.185-0.073-0.263-0.049-0.081-0.142-0.154-0.279-0.219-0.135-0.065-0.335-0.124-0.6-0.178-0.232-0.051-0.446-0.112-0.64-0.182-0.192-0.073-0.356-0.161-0.494-0.263s-0.244-0.224-0.32-0.365-0.113-0.302-0.113-0.486c0-0.178 0.039-0.347 0.117-0.506s0.19-0.3 0.336-0.421c0.146-0.122 0.323-0.217 0.531-0.288 0.211-0.070 0.446-0.105 0.705-0.105 0.367 0 0.682 0.062 0.944 0.186 0.265 0.122 0.467 0.288 0.608 0.498 0.14 0.208 0.211 0.443 0.211 0.705h-0.976c0-0.116-0.030-0.224-0.089-0.324-0.057-0.103-0.143-0.185-0.259-0.247-0.116-0.065-0.262-0.097-0.438-0.097-0.167 0-0.306 0.027-0.417 0.081-0.108 0.051-0.189 0.119-0.243 0.203-0.051 0.084-0.077 0.176-0.077 0.275 0 0.073 0.014 0.139 0.040 0.198 0.030 0.057 0.078 0.109 0.146 0.158 0.068 0.046 0.159 0.089 0.276 0.13 0.119 0.040 0.267 0.080 0.446 0.117 0.335 0.070 0.623 0.161 0.863 0.271 0.243 0.108 0.429 0.248 0.559 0.421 0.13 0.17 0.194 0.386 0.194 0.648 0 0.194-0.042 0.373-0.126 0.535-0.081 0.159-0.2 0.298-0.356 0.417-0.157 0.116-0.344 0.207-0.563 0.271-0.216 0.065-0.459 0.097-0.729 0.097-0.397 0-0.733-0.070-1.009-0.211-0.276-0.143-0.485-0.325-0.628-0.547-0.14-0.224-0.211-0.456-0.211-0.697h0.944c0.011 0.181 0.061 0.325 0.15 0.433 0.092 0.105 0.205 0.182 0.34 0.231 0.138 0.046 0.279 0.069 0.425 0.069 0.176 0 0.323-0.023 0.442-0.069 0.119-0.049 0.209-0.113 0.271-0.194 0.062-0.084 0.093-0.178 0.093-0.284zM46.701 16.306v-2.090c0-0.157-0.028-0.292-0.085-0.405s-0.143-0.201-0.259-0.263c-0.113-0.062-0.257-0.093-0.429-0.093-0.159 0-0.297 0.027-0.413 0.081s-0.207 0.127-0.271 0.219c-0.065 0.092-0.097 0.196-0.097 0.312h-0.972c0-0.173 0.042-0.34 0.126-0.502s0.205-0.307 0.365-0.433 0.35-0.227 0.571-0.3c0.221-0.073 0.47-0.109 0.745-0.109 0.329 0 0.621 0.055 0.875 0.166 0.257 0.111 0.458 0.278 0.604 0.502 0.149 0.221 0.223 0.5 0.223 0.835v1.949c0 0.2 0.014 0.379 0.040 0.539 0.030 0.157 0.072 0.293 0.126 0.409v0.065h-1.001c-0.046-0.105-0.082-0.239-0.109-0.401-0.024-0.165-0.036-0.324-0.036-0.478zM46.843 14.52l0.008 0.604h-0.701c-0.181 0-0.34 0.018-0.478 0.053-0.138 0.032-0.252 0.081-0.344 0.146s-0.161 0.143-0.207 0.235c-0.046 0.092-0.069 0.196-0.069 0.312s0.027 0.223 0.081 0.32c0.054 0.095 0.132 0.169 0.235 0.223 0.105 0.054 0.232 0.081 0.381 0.081 0.2 0 0.374-0.041 0.523-0.122 0.151-0.084 0.27-0.185 0.356-0.304 0.086-0.122 0.132-0.236 0.138-0.344l0.316 0.433c-0.032 0.111-0.088 0.23-0.166 0.356s-0.181 0.248-0.308 0.365c-0.124 0.113-0.274 0.207-0.45 0.279-0.173 0.073-0.373 0.109-0.6 0.109-0.286 0-0.541-0.057-0.766-0.17-0.224-0.116-0.4-0.271-0.527-0.466-0.127-0.197-0.19-0.42-0.19-0.668 0-0.232 0.043-0.437 0.13-0.616 0.089-0.181 0.219-0.332 0.389-0.454 0.173-0.122 0.383-0.213 0.632-0.275 0.248-0.065 0.532-0.097 0.851-0.097h0.766zM49.683 13.637v3.549h-0.976v-4.383h0.932l0.045 0.835zM51.024 12.774l-0.008 0.907c-0.059-0.011-0.124-0.019-0.194-0.024-0.068-0.005-0.135-0.008-0.203-0.008-0.167 0-0.315 0.024-0.442 0.073-0.127 0.046-0.234 0.113-0.32 0.203-0.084 0.086-0.149 0.192-0.194 0.316s-0.073 0.263-0.081 0.417l-0.223 0.016c0-0.275 0.027-0.531 0.081-0.766s0.135-0.442 0.243-0.62c0.111-0.178 0.248-0.317 0.413-0.417 0.167-0.1 0.361-0.15 0.579-0.15 0.059 0 0.123 0.005 0.19 0.016 0.070 0.011 0.123 0.023 0.158 0.037zM53.487 17.266c-0.324 0-0.617-0.053-0.879-0.158-0.259-0.108-0.481-0.258-0.664-0.45-0.181-0.192-0.32-0.417-0.417-0.677s-0.146-0.539-0.146-0.839v-0.162c0-0.343 0.050-0.653 0.15-0.932s0.239-0.516 0.417-0.713c0.178-0.2 0.389-0.352 0.632-0.458s0.506-0.158 0.79-0.158c0.313 0 0.587 0.053 0.822 0.158s0.429 0.254 0.583 0.446c0.157 0.189 0.273 0.415 0.348 0.677 0.078 0.262 0.117 0.551 0.117 0.867v0.417h-3.387v-0.701h2.422v-0.077c-0.005-0.176-0.041-0.34-0.105-0.494-0.062-0.154-0.158-0.278-0.288-0.373s-0.302-0.142-0.519-0.142c-0.162 0-0.306 0.035-0.433 0.105-0.124 0.068-0.228 0.166-0.312 0.296s-0.149 0.286-0.194 0.47c-0.043 0.181-0.065 0.385-0.065 0.612v0.162c0 0.192 0.026 0.37 0.077 0.535 0.054 0.162 0.132 0.304 0.235 0.425s0.227 0.217 0.373 0.288c0.146 0.067 0.312 0.101 0.498 0.101 0.235 0 0.444-0.047 0.628-0.142s0.343-0.228 0.478-0.401l0.514 0.498c-0.095 0.138-0.217 0.27-0.369 0.397-0.151 0.124-0.336 0.225-0.555 0.304-0.216 0.078-0.467 0.117-0.753 0.117zM59.049 13.637v3.549h-0.976v-4.383h0.932l0.045 0.835zM60.389 12.774l-0.008 0.907c-0.060-0.011-0.124-0.019-0.195-0.024-0.068-0.005-0.135-0.008-0.202-0.008-0.168 0-0.315 0.024-0.441 0.073-0.127 0.046-0.234 0.113-0.32 0.203-0.084 0.086-0.149 0.192-0.194 0.316s-0.073 0.263-0.081 0.417l-0.223 0.016c0-0.275 0.027-0.531 0.081-0.766s0.135-0.442 0.243-0.62c0.111-0.178 0.249-0.317 0.413-0.417 0.167-0.1 0.36-0.15 0.579-0.15 0.060 0 0.123 0.005 0.191 0.016 0.070 0.011 0.123 0.023 0.158 0.037zM62.852 17.266c-0.324 0-0.617-0.053-0.879-0.158-0.259-0.108-0.481-0.258-0.664-0.45-0.181-0.192-0.32-0.417-0.417-0.677s-0.146-0.539-0.146-0.839v-0.162c0-0.343 0.050-0.653 0.15-0.932s0.239-0.516 0.417-0.713c0.178-0.2 0.389-0.352 0.632-0.458s0.507-0.158 0.79-0.158c0.313 0 0.587 0.053 0.823 0.158s0.43 0.254 0.583 0.446c0.157 0.189 0.273 0.415 0.348 0.677 0.078 0.262 0.117 0.551 0.117 0.867v0.417h-3.386v-0.701h2.422v-0.077c-0.005-0.176-0.040-0.34-0.105-0.494-0.062-0.154-0.158-0.278-0.288-0.373s-0.302-0.142-0.519-0.142c-0.162 0-0.306 0.035-0.433 0.105-0.124 0.068-0.228 0.166-0.312 0.296s-0.149 0.286-0.195 0.47c-0.043 0.181-0.065 0.385-0.065 0.612v0.162c0 0.192 0.025 0.37 0.077 0.535 0.054 0.162 0.132 0.304 0.235 0.425s0.227 0.217 0.373 0.288c0.146 0.067 0.312 0.101 0.498 0.101 0.235 0 0.444-0.047 0.628-0.142s0.343-0.228 0.478-0.401l0.515 0.498c-0.095 0.138-0.217 0.27-0.369 0.397-0.151 0.124-0.336 0.225-0.555 0.304-0.216 0.078-0.467 0.117-0.754 0.117zM68.037 18.87v-5.197l0.114-0.871h0.871v6.068h-0.985zM65.19 15.038v-0.085c0-0.332 0.038-0.635 0.113-0.907 0.076-0.275 0.188-0.512 0.337-0.709s0.329-0.348 0.543-0.454c0.213-0.108 0.459-0.162 0.737-0.162 0.27 0 0.505 0.051 0.705 0.154 0.203 0.103 0.373 0.25 0.511 0.442 0.14 0.189 0.252 0.415 0.336 0.677s0.145 0.554 0.183 0.875v0.271c-0.036 0.313-0.095 0.6-0.178 0.859s-0.196 0.483-0.337 0.672-0.312 0.336-0.514 0.442c-0.203 0.103-0.44 0.154-0.713 0.154s-0.516-0.055-0.729-0.166c-0.213-0.111-0.395-0.266-0.543-0.466-0.146-0.203-0.258-0.439-0.337-0.709-0.075-0.273-0.113-0.568-0.113-0.887zM66.166 14.953v0.085c0 0.2 0.018 0.387 0.053 0.563 0.038 0.173 0.097 0.327 0.178 0.462 0.081 0.132 0.184 0.236 0.308 0.312s0.274 0.113 0.45 0.113c0.23 0 0.417-0.050 0.563-0.15 0.149-0.1 0.262-0.234 0.341-0.401 0.081-0.17 0.137-0.358 0.17-0.563v-0.733c-0.019-0.159-0.053-0.308-0.101-0.446-0.049-0.14-0.116-0.262-0.203-0.365-0.084-0.105-0.189-0.186-0.316-0.243-0.124-0.059-0.273-0.089-0.446-0.089-0.175 0-0.327 0.038-0.454 0.113s-0.231 0.181-0.312 0.316c-0.078 0.132-0.136 0.286-0.174 0.462s-0.057 0.363-0.057 0.563zM72.704 16.152v-3.35h0.981v4.383h-0.924l-0.057-1.033zM72.842 15.241l0.328-0.008c0 0.294-0.033 0.566-0.097 0.814-0.065 0.246-0.165 0.46-0.3 0.644-0.135 0.181-0.308 0.323-0.519 0.425-0.211 0.1-0.463 0.15-0.758 0.15-0.213 0-0.409-0.031-0.587-0.093s-0.332-0.158-0.462-0.288c-0.127-0.13-0.226-0.298-0.296-0.506s-0.105-0.456-0.105-0.745v-2.832h0.977v2.84c0 0.159 0.018 0.293 0.056 0.401 0.038 0.105 0.089 0.19 0.154 0.255s0.14 0.111 0.227 0.138c0.087 0.027 0.178 0.040 0.276 0.040 0.278 0 0.497-0.054 0.656-0.162 0.162-0.111 0.277-0.259 0.344-0.446 0.071-0.186 0.105-0.396 0.105-0.628zM75.73 12.802v4.383h-0.98v-4.383h0.98zM74.685 11.652c0-0.149 0.049-0.271 0.146-0.369 0.1-0.1 0.238-0.15 0.414-0.15 0.172 0 0.309 0.050 0.409 0.15 0.1 0.097 0.15 0.22 0.15 0.369 0 0.146-0.050 0.267-0.15 0.365s-0.236 0.146-0.409 0.146c-0.176 0-0.313-0.049-0.414-0.146-0.097-0.097-0.146-0.219-0.146-0.365zM77.78 13.637v3.549h-0.977v-4.383h0.932l0.044 0.835zM79.121 12.774l-0.008 0.907c-0.059-0.011-0.124-0.019-0.194-0.024-0.068-0.005-0.135-0.008-0.203-0.008-0.168 0-0.315 0.024-0.441 0.073-0.127 0.046-0.233 0.113-0.32 0.203-0.084 0.086-0.149 0.192-0.194 0.316s-0.073 0.263-0.081 0.417l-0.223 0.016c0-0.275 0.027-0.531 0.081-0.766s0.135-0.442 0.243-0.62c0.111-0.178 0.248-0.317 0.413-0.417 0.168-0.1 0.361-0.15 0.58-0.15 0.059 0 0.123 0.005 0.19 0.016 0.070 0.011 0.123 0.023 0.158 0.037zM81.584 17.266c-0.324 0-0.617-0.053-0.879-0.158-0.259-0.108-0.481-0.258-0.664-0.45-0.181-0.192-0.32-0.417-0.417-0.677s-0.146-0.539-0.146-0.839v-0.162c0-0.343 0.050-0.653 0.15-0.932s0.239-0.516 0.417-0.713c0.178-0.2 0.389-0.352 0.632-0.458s0.506-0.158 0.79-0.158c0.313 0 0.587 0.053 0.822 0.158s0.43 0.254 0.584 0.446c0.156 0.189 0.273 0.415 0.348 0.677 0.078 0.262 0.117 0.551 0.117 0.867v0.417h-3.387v-0.701h2.423v-0.077c-0.005-0.176-0.040-0.34-0.105-0.494-0.062-0.154-0.158-0.278-0.287-0.373s-0.303-0.142-0.519-0.142c-0.162 0-0.306 0.035-0.434 0.105-0.124 0.068-0.228 0.166-0.312 0.296s-0.149 0.286-0.194 0.47c-0.043 0.181-0.065 0.385-0.065 0.612v0.162c0 0.192 0.026 0.37 0.077 0.535 0.054 0.162 0.133 0.304 0.235 0.425s0.227 0.217 0.373 0.288c0.146 0.067 0.312 0.101 0.498 0.101 0.235 0 0.444-0.047 0.628-0.142s0.343-0.228 0.478-0.401l0.514 0.498c-0.095 0.138-0.217 0.27-0.369 0.397-0.151 0.124-0.337 0.225-0.555 0.304-0.216 0.078-0.467 0.117-0.753 0.117zM86.773 16.278v-5.315h0.98v6.222h-0.887l-0.093-0.907zM83.921 15.042v-0.085c0-0.332 0.039-0.635 0.117-0.907 0.079-0.275 0.192-0.512 0.341-0.709 0.148-0.2 0.329-0.352 0.543-0.458 0.213-0.108 0.453-0.162 0.721-0.162 0.265 0 0.497 0.051 0.697 0.154s0.37 0.25 0.511 0.442c0.14 0.189 0.252 0.416 0.336 0.681 0.084 0.262 0.143 0.554 0.178 0.875v0.271c-0.036 0.313-0.095 0.6-0.178 0.859s-0.196 0.483-0.336 0.672c-0.14 0.189-0.312 0.335-0.515 0.438-0.2 0.103-0.433 0.154-0.7 0.154-0.265 0-0.504-0.055-0.717-0.166-0.211-0.111-0.391-0.266-0.539-0.466s-0.262-0.435-0.341-0.705c-0.078-0.273-0.117-0.569-0.117-0.887zM84.898 14.957v0.085c0 0.2 0.017 0.386 0.053 0.559 0.037 0.173 0.095 0.325 0.174 0.458 0.079 0.13 0.18 0.232 0.304 0.308 0.127 0.073 0.279 0.109 0.454 0.109 0.221 0 0.404-0.049 0.547-0.146s0.255-0.228 0.336-0.393c0.084-0.167 0.14-0.354 0.17-0.559v-0.733c-0.016-0.159-0.050-0.308-0.101-0.446-0.049-0.138-0.114-0.258-0.199-0.361-0.084-0.105-0.187-0.186-0.312-0.243-0.121-0.059-0.266-0.089-0.434-0.089-0.178 0-0.329 0.038-0.453 0.113s-0.227 0.18-0.308 0.312c-0.078 0.132-0.136 0.286-0.174 0.462s-0.056 0.363-0.056 0.563z"></path>
</symbol>
  </defs>
</svg>